<svg width="229" height="60" viewBox="0 0 229 60" fill="none" xmlns="http://www.w3.org/2000/svg">
<path d="M45.1172 40.1883C47.4882 38.1966 49.3823 35.6984 50.66 32.8778C51.9377 30.0571 52.5665 26.9857 52.5 23.8899C52.2656 13.1766 43.6851 4.34299 32.9906 3.78049C30.2312 3.63029 27.4698 4.03615 24.8704 4.97395C22.2709 5.91175 19.8864 7.36237 17.8585 9.23965C15.8306 11.1169 14.2006 13.3826 13.0654 15.9021C11.9301 18.4216 11.3128 21.1435 11.25 23.9063L5.98825 34.0266C5.96716 34.0688 5.94606 34.111 5.92731 34.1531C5.55009 35.0324 5.5232 36.0226 5.85216 36.921C6.18112 37.8195 6.84105 38.5582 7.69684 38.986L7.75544 39.0117L13.125 41.4703V48.75C13.125 49.7446 13.5201 50.6984 14.2233 51.4017C14.9266 52.1049 15.8804 52.5 16.875 52.5H28.125C28.6223 52.5 29.0992 52.3025 29.4508 51.9508C29.8024 51.5992 30 51.1223 30 50.625C30 50.1277 29.8024 49.6508 29.4508 49.2992C29.0992 48.9476 28.6223 48.75 28.125 48.75H16.875V40.268C16.8752 39.9086 16.7722 39.5567 16.5782 39.2542C16.3841 38.9517 16.1072 38.7113 15.7804 38.5617L9.37497 35.625L14.782 25.2328C14.9229 24.9687 14.9977 24.6744 15 24.375C14.9994 20.5508 16.2978 16.8398 18.6824 13.8501C21.067 10.8604 24.3964 8.76937 28.125 7.91955V11.5735C26.8739 12.0158 25.8196 12.8861 25.1482 14.0306C24.4768 15.1751 24.2316 16.5201 24.456 17.828C24.6804 19.1358 25.3599 20.3221 26.3744 21.1774C27.3889 22.0327 28.6731 22.5018 30 22.5018C31.3269 22.5018 32.6111 22.0327 33.6256 21.1774C34.6401 20.3221 35.3196 19.1358 35.544 17.828C35.7683 16.5201 35.5232 15.1751 34.8518 14.0306C34.1804 12.8861 33.126 12.0158 31.875 11.5735V7.50002C32.1797 7.50002 32.4843 7.50002 32.789 7.52345C36.1141 7.71391 39.3091 8.88051 41.9746 10.8773C44.6401 12.8741 46.6577 15.6125 47.775 18.75H43.125C42.8499 18.7499 42.5782 18.8103 42.3291 18.927C42.08 19.0436 41.8596 19.2137 41.6836 19.425L35.7047 26.6016C34.4577 26.1369 33.0866 26.1283 31.8339 26.577C30.5811 27.0258 29.5275 27.9032 28.8592 29.0539C28.191 30.2047 27.9512 31.5547 28.1823 32.8652C28.4135 34.1756 29.1006 35.3622 30.1222 36.2149C31.1438 37.0676 32.434 37.5316 33.7647 37.5247C35.0954 37.5179 36.3808 37.0407 37.3936 36.1775C38.4063 35.3143 39.0812 34.1208 39.2988 32.808C39.5165 31.4952 39.2628 30.1477 38.5828 29.0039L44.0039 22.5H48.6422C48.6984 22.9875 48.7328 23.4797 48.7453 23.9766C48.8037 26.6621 48.2225 29.3231 47.0497 31.7397C45.8768 34.1563 44.1459 36.2593 42 37.875C41.7355 38.0732 41.5282 38.3378 41.399 38.642C41.2697 38.9462 41.2232 39.2791 41.264 39.607L43.139 54.607C43.1961 55.0599 43.4163 55.4763 43.7585 55.7784C44.1007 56.0804 44.5412 56.2473 44.9976 56.2477C45.076 56.2477 45.1542 56.243 45.232 56.2336C45.4764 56.2032 45.7124 56.1249 45.9266 56.0032C46.1407 55.8816 46.3288 55.7189 46.48 55.5246C46.6313 55.3302 46.7428 55.108 46.8081 54.8705C46.8735 54.633 46.8914 54.385 46.8609 54.1406L45.1172 40.1883ZM30 18.75C29.6291 18.75 29.2666 18.64 28.9583 18.434C28.6499 18.228 28.4096 17.9352 28.2677 17.5925C28.1258 17.2499 28.0887 16.8729 28.161 16.5092C28.2333 16.1455 28.4119 15.8114 28.6741 15.5492C28.9364 15.287 29.2705 15.1084 29.6342 15.036C29.9979 14.9637 30.3749 15.0008 30.7175 15.1427C31.0601 15.2847 31.353 15.525 31.559 15.8333C31.765 16.1417 31.875 16.5042 31.875 16.875C31.875 17.3723 31.6774 17.8492 31.3258 18.2008C30.9742 18.5525 30.4973 18.75 30 18.75ZM33.75 33.75C33.3791 33.75 33.0166 33.64 32.7083 33.434C32.3999 33.228 32.1596 32.9352 32.0177 32.5925C31.8758 32.2499 31.8387 31.8729 31.911 31.5092C31.9833 31.1455 32.1619 30.8114 32.4241 30.5492C32.6864 30.287 33.0205 30.1084 33.3842 30.036C33.7479 29.9637 34.1249 30.0008 34.4675 30.1427C34.8101 30.2847 35.103 30.525 35.309 30.8333C35.515 31.1417 35.625 31.5042 35.625 31.875C35.625 32.3723 35.4274 32.8492 35.0758 33.2008C34.7242 33.5525 34.2473 33.75 33.75 33.75Z" fill="#FFA500"/>
<path d="M70.1289 39V24.6934H78.5176L78.2246 26.207H72.043V30.7773H77.5508L77.2578 32.291H72.043V39H70.1289ZM81.1934 28.6484H83.0488V39H81.1934V28.6484ZM82.1309 26.4023C81.9681 26.4023 81.8151 26.373 81.6719 26.3145C81.5286 26.2559 81.4049 26.1745 81.3008 26.0703C81.1966 25.9661 81.1152 25.8457 81.0566 25.709C80.998 25.5658 80.9688 25.4095 80.9688 25.2402C80.9688 25.071 81.0013 24.9115 81.0664 24.7617C81.1315 24.612 81.2161 24.4818 81.3203 24.3711C81.431 24.2604 81.5579 24.1758 81.7012 24.1172C81.8509 24.0521 82.0072 24.0195 82.1699 24.0195C82.3262 24.0195 82.4727 24.0521 82.6094 24.1172C82.7526 24.1758 82.8763 24.2604 82.9805 24.3711C83.0846 24.4818 83.166 24.612 83.2246 24.7617C83.2832 24.9049 83.3125 25.0579 83.3125 25.2207C83.3125 25.3965 83.2799 25.5592 83.2148 25.709C83.1497 25.8522 83.0618 25.9759 82.9512 26.0801C82.847 26.1777 82.7233 26.2559 82.5801 26.3145C82.4368 26.373 82.2871 26.4023 82.1309 26.4023ZM86.5156 28.6484H87.9609L88.2539 30.4453C88.4818 30.2305 88.7422 30.0059 89.0352 29.7715C89.3281 29.5371 89.6439 29.3223 89.9824 29.127C90.3275 28.9316 90.6921 28.7721 91.0762 28.6484C91.4603 28.5182 91.8542 28.4531 92.2578 28.4531C92.7331 28.4531 93.1595 28.5443 93.5371 28.7266C93.9212 28.9089 94.2467 29.166 94.5137 29.498C94.7871 29.8236 94.9954 30.2142 95.1387 30.6699C95.2884 31.1191 95.3633 31.6107 95.3633 32.1445V39H93.5078V32.3203C93.5078 31.9427 93.4525 31.6107 93.3418 31.3242C93.2376 31.0312 93.0911 30.7904 92.9023 30.6016C92.7135 30.4062 92.4889 30.2598 92.2285 30.1621C91.9681 30.0645 91.6849 30.0156 91.3789 30.0156C90.8385 30.0156 90.3275 30.1589 89.8457 30.4453C89.3639 30.7318 88.8724 31.1094 88.3711 31.5781V39H86.5156V28.6484ZM106.965 38.1211C106.717 38.2969 106.431 38.4531 106.105 38.5898C105.786 38.7201 105.454 38.8307 105.109 38.9219C104.764 39.013 104.416 39.0814 104.064 39.127C103.719 39.1725 103.397 39.1953 103.098 39.1953C102.434 39.1953 101.802 39.0846 101.203 38.8633C100.604 38.6419 100.08 38.3164 99.6309 37.8867C99.1816 37.457 98.8236 36.9264 98.5566 36.2949C98.2897 35.6569 98.1562 34.9245 98.1562 34.0977C98.1562 33.2448 98.2962 32.4701 98.5762 31.7734C98.8626 31.0768 99.2435 30.4844 99.7188 29.9961C100.194 29.5013 100.741 29.1204 101.359 28.8535C101.984 28.5866 102.639 28.4531 103.322 28.4531C103.876 28.4531 104.39 28.5475 104.865 28.7363C105.347 28.9186 105.764 29.1953 106.115 29.5664C106.473 29.9375 106.753 30.403 106.955 30.9629C107.157 31.5163 107.258 32.1641 107.258 32.9062C107.258 33.056 107.251 33.235 107.238 33.4434C107.225 33.6517 107.199 33.8698 107.16 34.0977H100.09C100.09 34.6576 100.188 35.1589 100.383 35.6016C100.585 36.0378 100.865 36.4089 101.223 36.7148C101.587 37.0143 102.02 37.2422 102.521 37.3984C103.023 37.5547 103.576 37.6328 104.182 37.6328C104.331 37.6328 104.514 37.6263 104.729 37.6133C104.943 37.6003 105.174 37.5742 105.422 37.5352C105.669 37.4961 105.926 37.4408 106.193 37.3691C106.46 37.291 106.717 37.1901 106.965 37.0664V38.1211ZM105.5 32.9453C105.5 32.457 105.432 32.0273 105.295 31.6562C105.158 31.2786 104.973 30.9629 104.738 30.709C104.504 30.4551 104.23 30.263 103.918 30.1328C103.612 30.0026 103.283 29.9375 102.932 29.9375C102.541 29.9375 102.173 30.0189 101.828 30.1816C101.483 30.3379 101.18 30.5527 100.92 30.8262C100.666 31.0996 100.464 31.4186 100.314 31.7832C100.165 32.1478 100.09 32.5352 100.09 32.9453H105.5ZM110.148 28.6484H112.004V35.2109C112.004 35.569 112.053 35.8978 112.15 36.1973C112.255 36.4902 112.395 36.7441 112.57 36.959C112.753 37.1738 112.967 37.3398 113.215 37.457C113.469 37.5742 113.749 37.6328 114.055 37.6328C114.322 37.6328 114.582 37.5872 114.836 37.4961C115.096 37.4049 115.344 37.2878 115.578 37.1445C115.819 36.9948 116.044 36.8255 116.252 36.6367C116.467 36.4414 116.665 36.2396 116.848 36.0312V28.6484H118.703V39H117.258L116.945 37.2227C116.704 37.444 116.447 37.6719 116.174 37.9062C115.9 38.1341 115.607 38.3457 115.295 38.541C114.989 38.7298 114.663 38.8861 114.318 39.0098C113.973 39.1335 113.612 39.1953 113.234 39.1953C112.792 39.1953 112.382 39.1074 112.004 38.9316C111.633 38.7559 111.307 38.5085 111.027 38.1895C110.754 37.8639 110.539 37.4766 110.383 37.0273C110.227 36.5716 110.148 36.0703 110.148 35.5234V28.6484ZM122.141 28.6484H123.586L123.879 31.7539C123.964 31.5911 124.051 31.4251 124.143 31.2559C124.24 31.0801 124.335 30.9108 124.426 30.748C124.523 30.5853 124.618 30.4323 124.709 30.2891C124.8 30.1458 124.882 30.0221 124.953 29.918C125.096 29.7161 125.256 29.5273 125.432 29.3516C125.614 29.1693 125.809 29.013 126.018 28.8828C126.226 28.7461 126.447 28.6419 126.682 28.5703C126.916 28.4922 127.167 28.4531 127.434 28.4531C127.622 28.4531 127.801 28.4759 127.971 28.5215C128.14 28.5605 128.28 28.6289 128.391 28.7266L128.195 30.4648C128.078 30.4323 127.961 30.4128 127.844 30.4062C127.733 30.3932 127.622 30.3867 127.512 30.3867C127.049 30.3867 126.646 30.4616 126.301 30.6113C125.962 30.7611 125.656 30.9661 125.383 31.2266C125.116 31.4805 124.872 31.7799 124.65 32.125C124.436 32.4701 124.217 32.8411 123.996 33.2383V39H122.141V28.6484ZM143.479 35.1133H137.307L135.969 39H134.162L139.484 24.6934H141.516L146.848 39H144.836L143.479 35.1133ZM142.941 33.6191L141.047 28.0332L140.49 26.041H140.295L139.738 28.0332L137.824 33.6191H142.941ZM151.672 39H149.758V24.6934H151.672V39Z" fill="#FFA500"/>
<path d="M155.794 27H155.316V23.8018H154.129L154.203 23.4233H157.03L156.957 23.8018H155.794V27ZM157.455 27L157.726 23.4233H158.443L159.327 25.9209L159.464 26.3872H159.513L159.647 25.9209L160.533 23.4233H161.253L161.524 27H161.053L160.863 24.1924L160.843 23.6797H160.797L160.655 24.168L159.688 26.9268H159.256L158.28 24.1729L158.133 23.6797H158.087L158.072 24.1875L157.882 27H157.455Z" fill="#FFA500"/>
</svg>
