<svg width="114" height="146" viewBox="0 0 114 146" fill="none" xmlns="http://www.w3.org/2000/svg">
<circle cx="57" cy="132" r="14" fill="#FFA500"/>
<circle cx="100" cy="107" r="14" fill="#FFA500"/>
<circle cx="57" cy="72" r="17" fill="#FFA500"/>
<circle cx="14" cy="104" r="14" fill="#FFA500"/>
<circle cx="14" cy="36" r="14" fill="#FFA500"/>
<circle cx="57" cy="14" r="14" fill="#FFA500"/>
<circle cx="100" cy="36" r="14" fill="#FFA500"/>
<rect x="107" y="31" width="5" height="82" fill="#FFA500"/>
<rect x="3" y="28" width="5" height="82" fill="#FFA500"/>
<rect x="55" y="22" width="5" height="98" fill="#FFA500"/>
<rect x="56.8998" width="5" height="61.9791" transform="rotate(62.3476 56.8998 0)" fill="#FFA500"/>
<rect x="109.354" y="109" width="5" height="61.9791" transform="rotate(61.2804 109.354 109)" fill="#FFA500"/>
<rect x="58.8904" y="139.556" width="5" height="61.9791" transform="rotate(120.606 58.8904 139.556)" fill="#FFA500"/>
<rect x="112.89" y="32.5556" width="5" height="61.9791" transform="rotate(120.606 112.89 32.5556)" fill="#FFA500"/>
<rect x="98.2937" y="102.468" width="5" height="105.332" transform="rotate(130.543 98.2937 102.468)" fill="#FFA500"/>
<rect x="17.9094" y="105.902" width="5" height="105.332" transform="rotate(-130 17.9094 105.902)" fill="#FFA500"/>
<circle cx="56.8974" cy="71.7123" r="13.3904" fill="#FFA500"/>
<rect x="96.2808" y="39.4178" width="3.93836" height="64.589" fill="#FFA500"/>
<rect x="14.363" y="37.0548" width="3.93836" height="64.589" fill="#FFA500"/>
<rect x="55.3219" y="32.3288" width="3.93836" height="77.1918" fill="#FFA500"/>
<rect x="56.8184" y="15" width="3.93836" height="48.8191" transform="rotate(62.3476 56.8184 15)" fill="#FFA500"/>
<rect x="98.1354" y="100.856" width="3.93836" height="48.8191" transform="rotate(61.2804 98.1354 100.856)" fill="#FFA500"/>
<rect x="58.3862" y="124.924" width="3.93836" height="48.8191" transform="rotate(120.606 58.3862 124.924)" fill="#FFA500"/>
<rect x="100.921" y="40.6431" width="3.93836" height="48.8191" transform="rotate(120.606 100.921 40.6431)" fill="#FFA500"/>
<rect x="89.4232" y="95.7108" width="3.93836" height="82.9668" transform="rotate(130.543 89.4232 95.7108)" fill="#FFA500"/>
<rect x="26.1067" y="98.4157" width="3.93836" height="82.9668" transform="rotate(-130 26.1067 98.4157)" fill="#FFA500"/>
</svg>
