<svg width="109" height="143" viewBox="0 0 109 143" fill="none" xmlns="http://www.w3.org/2000/svg">
<path d="M67.246 130.536C67.246 137.333 61.7362 142.843 54.9395 142.843C48.1428 142.843 42.6331 137.333 42.6331 130.536C42.6331 123.74 48.1428 118.23 54.9395 118.23C61.7362 118.23 67.246 123.74 67.246 130.536Z" fill="#FFA500"/>
<path d="M71.6411 70.3226C71.6411 80.2748 63.5732 88.3427 53.621 88.3427C43.6687 88.3427 35.6008 80.2748 35.6008 70.3226C35.6008 60.3703 43.6687 52.3024 53.621 52.3024C63.5732 52.3024 71.6411 60.3703 71.6411 70.3226Z" fill="#FFA500"/>
<path d="M109 105.923C109 112.72 103.49 118.23 96.6936 118.23C89.8969 118.23 84.3871 112.72 84.3871 105.923C84.3871 99.1267 89.8969 93.6169 96.6936 93.6169C103.49 93.6169 109 99.1267 109 105.923Z" fill="#FFA500"/>
<path d="M109 35.6008C109 42.3975 103.49 47.9073 96.6936 47.9073C89.8969 47.9073 84.3871 42.3975 84.3871 35.6008C84.3871 28.8041 89.8969 23.2944 96.6936 23.2944C103.49 23.2944 109 28.8041 109 35.6008Z" fill="#FFA500"/>
<path d="M24.6129 104.165C24.6129 110.962 19.1031 116.472 12.3065 116.472C5.50979 116.472 0 110.962 0 104.165C0 97.3687 5.50979 91.8589 12.3065 91.8589C19.1031 91.8589 24.6129 97.3687 24.6129 104.165Z" fill="#FFA500"/>
<path d="M24.6129 37.3589C24.6129 44.1555 19.1031 49.6653 12.3065 49.6653C5.50979 49.6653 0 44.1555 0 37.3589C0 30.5622 5.50979 25.0524 12.3065 25.0524C19.1031 25.0524 24.6129 30.5622 24.6129 37.3589Z" fill="#FFA500"/>
<path d="M65.4879 12.3065C65.4879 19.1031 59.9781 24.6129 53.1814 24.6129C46.3848 24.6129 40.875 19.1031 40.875 12.3065C40.875 5.50979 46.3848 0 53.1814 0C59.9781 0 65.4879 5.50979 65.4879 12.3065Z" fill="#FFA500"/>
<path d="M51.5818 6.59274L49.2258 10.9273L87.8418 31.9166L90.1978 27.582L51.5818 6.59274Z" fill="#FFA500"/>
<path d="M53.6785 13.9983L51.3122 9.66932L12.746 30.7499L15.1123 35.0789L53.6785 13.9983Z" fill="#FFA500"/>
<path d="M98.0696 110.252L95.7034 105.923L57.1371 127.004L59.5034 131.333L98.0696 110.252Z" fill="#FFA500"/>
<path d="M57.2352 83.9476L52.3024 84.0304L53.0406 127.976L57.9734 127.893L57.2352 83.9476Z" fill="#FFA500"/>
<path d="M53.0251 77.0181L50.22 72.9597L14.0645 97.9502L16.8697 102.009L53.0251 77.0181Z" fill="#FFA500"/>
<path d="M95.7038 41.2486L92.6691 37.3589L58.0161 64.3944L61.0508 68.2841L95.7038 41.2486Z" fill="#FFA500"/>
<path d="M61.519 71.2016L58.0161 74.6757L88.9661 105.882L92.469 102.408L61.519 71.2016Z" fill="#FFA500"/>
<path d="M20.644 37.3589L17.1411 40.833L48.0911 72.0394L51.594 68.5653L20.644 37.3589Z" fill="#FFA500"/>
<path d="M56.2643 19.5841L51.3315 19.667L52.1616 69.0807L57.0944 68.9978L56.2643 19.5841Z" fill="#FFA500"/>
<path d="M14.6624 109.44L12.3064 113.774L50.9224 134.763L53.2784 130.429L14.6624 109.44Z" fill="#FFA500"/>
<path d="M98.9898 46.1492L94.0564 46.177L94.3479 97.9677L99.2813 97.94L98.9898 46.1492Z" fill="#FFA500"/>
<path d="M108.597 35.0881L103.664 35.1159L104.066 106.63L108.999 106.602L108.597 35.0881Z" fill="#FFA500"/>
<path d="M5.37291 37.3589L0.439505 37.3866L0.841895 108.9L5.7753 108.873L5.37291 37.3589Z" fill="#FFA500"/>
<path d="M14.6028 46.1492L9.66934 46.177L9.96076 97.9677L14.8942 97.94L14.6028 46.1492Z" fill="#FFA500"/>
</svg>
