<svg width="169" height="173" viewBox="0 0 169 173" fill="none" xmlns="http://www.w3.org/2000/svg">
<path d="M169 150.36C169 159.968 161.211 167.757 151.603 167.757C141.995 167.757 134.206 159.968 134.206 150.36C134.206 140.752 141.995 132.963 151.603 132.963C161.211 132.963 169 140.752 169 150.36Z" fill="#FFA500"/>
<path d="M101.897 85.7426C101.897 95.3508 94.1081 103.14 84.5 103.14C74.8919 103.14 67.1029 95.3508 67.1029 85.7426C67.1029 76.1345 74.8919 68.3456 84.5 68.3456C94.1081 68.3456 101.897 76.1345 101.897 85.7426Z" fill="#FFA500"/>
<path d="M93.1985 164.651C93.1985 169.112 89.5822 172.728 85.1213 172.728C80.6604 172.728 77.0441 169.112 77.0441 164.651C77.0441 160.19 80.6604 156.574 85.1213 156.574C89.5822 156.574 93.1985 160.19 93.1985 164.651Z" fill="#FFA500"/>
<path d="M93.1985 8.07721C93.1985 12.5381 89.5822 16.1544 85.1213 16.1544C80.6604 16.1544 77.0441 12.5381 77.0441 8.07721C77.0441 3.61629 80.6604 0 85.1213 0C89.5822 0 93.1985 3.61629 93.1985 8.07721Z" fill="#FFA500"/>
<path d="M166.515 21.125C166.515 30.7331 158.726 38.5221 149.118 38.5221C139.51 38.5221 131.721 30.7331 131.721 21.125C131.721 11.5169 139.51 3.72794 149.118 3.72794C158.726 3.72794 166.515 11.5169 166.515 21.125Z" fill="#FFA500"/>
<path d="M34.7941 150.36C34.7941 159.968 27.0052 167.757 17.3971 167.757C7.78893 167.757 0 159.968 0 150.36C0 140.752 7.78893 132.963 17.3971 132.963C27.0052 132.963 34.7941 140.752 34.7941 150.36Z" fill="#FFA500"/>
<path d="M34.7941 21.125C34.7941 30.7331 27.0052 38.5221 17.3971 38.5221C7.78893 38.5221 0 30.7331 0 21.125C0 11.5169 7.78893 3.72794 17.3971 3.72794C27.0052 3.72794 34.7941 11.5169 34.7941 21.125Z" fill="#FFA500"/>
<path d="M83.2574 11.1838H86.9853V161.544H83.2574V11.1838Z" fill="#FFA500"/>
<path d="M20.1157 28.3731L22.6891 25.6759L148.081 145.314L145.508 148.012L20.1157 28.3731Z" fill="#FFA500"/>
<path d="M147.092 19.8824L149.735 22.5117L27.4956 145.37L24.8529 142.741L147.092 19.8824Z" fill="#FFA500"/>
</svg>
